<svg xmlns="http://www.w3.org/2000/svg" viewBox="0 0 128 128" role="img" aria-label="Paropten News icon">
  <defs>
    <linearGradient id="bg" x1="12" y1="10" x2="116" y2="118" gradientUnits="userSpaceOnUse">
      <stop offset="0" stop-color="#0f172a"/>
      <stop offset="0.48" stop-color="#0b5394"/>
      <stop offset="1" stop-color="#22c55e"/>
    </linearGradient>
    <linearGradient id="paper" x1="32" y1="36" x2="96" y2="98" gradientUnits="userSpaceOnUse">
      <stop offset="0" stop-color="#ffffff"/>
      <stop offset="1" stop-color="#dbeafe"/>
    </linearGradient>
    <filter id="shadow" x="-20%" y="-20%" width="140%" height="140%">
      <feDropShadow dx="0" dy="8" stdDeviation="7" flood-color="#020617" flood-opacity="0.35"/>
    </filter>
  </defs>
  <rect width="128" height="128" rx="30" fill="url(#bg)"/>
  <circle cx="96" cy="30" r="18" fill="#60a5fa" opacity="0.28"/>
  <circle cx="26" cy="100" r="24" fill="#86efac" opacity="0.20"/>
  <path d="M92 20l4 11 11 4-11 4-4 11-4-11-11-4 11-4 4-11z" fill="#facc15"/>
  <g filter="url(#shadow)">
    <rect x="28" y="34" width="72" height="70" rx="14" fill="url(#paper)"/>
    <rect x="38" y="48" width="52" height="8" rx="4" fill="#0b5394" opacity="0.35"/>
    <rect x="38" y="86" width="36" height="6" rx="3" fill="#0b5394" opacity="0.28"/>
    <circle cx="83" cy="86" r="5" fill="#22c55e"/>
    <path d="M47 79V50h22c8.5 0 14 5.3 14 13s-5.5 13-14 13H58v3h-11zm11-12h10.5c3 0 5.3-1.6 5.3-4.1 0-2.6-2.2-4.2-5.3-4.2H58V67z" fill="#18324a"/>
  </g>
</svg>
